<?xml version="1.0" encoding="UTF-8"?><svg xmlns="http://www.w3.org/2000/svg" fill="none" height="252" viewBox="0 0 672 252" width="672"><g><path d="M0 135.654C0 71.8652 51.7111 20.1541 115.5 20.1541H556.5C620.289 20.1541 672 71.8652 672 135.654C672 199.443 620.289 251.154 556.5 251.154H115.5C51.7111 251.154 0 199.443 0 135.654Z" fill="url(#paint0_linear)"/><g filter="url(#filter0_i)"><path d="M0 115.5C0 51.7111 51.7111 0 115.5 0H556.5C620.289 0 672 51.7111 672 115.5C672 179.289 620.289 231 556.5 231H115.5C51.7111 231 0 179.289 0 115.5Z" fill="url(#paint1_linear)"/></g><path d="M32.3146 115.5C32.3146 61.3934 76.1767 17.5312 130.283 17.5312H541.717C595.823 17.5312 639.685 61.3934 639.685 115.5C639.685 169.607 595.823 213.469 541.717 213.469H130.283C76.1767 213.469 32.3146 169.607 32.3146 115.5Z" fill="url(#paint2_linear)" opacity=".311"/><g id="change1_1"><path clip-rule="evenodd" d="M34.6572 100.043H637.343C637.562 99.0589 637.766 98.0698 637.956 97.0753C629.335 51.7765 589.525 17.5312 541.717 17.5312H130.283C82.4749 17.5312 42.6648 51.7765 34.0446 97.0752C34.2339 98.0697 34.4382 99.0589 34.6572 100.043Z" fill="#C1A0E0" fill-rule="evenodd" opacity=".311"/></g><g filter="url(#filter1_f)" id="change2_2"><path d="M115.476 20.6997C116.083 26.467 109.087 31.9291 99.8516 32.8998C90.6161 33.8705 82.6378 29.9822 82.0316 24.2149C81.4255 18.4477 88.421 12.9856 97.6565 12.0149C106.892 11.0442 114.87 14.9325 115.476 20.6997Z" fill="#fff"/></g><g filter="url(#filter2_f)" id="change2_1"><path d="M147.45 17.809C147.332 21.1683 142.876 23.7392 137.497 23.5513C132.118 23.3635 127.852 20.488 127.969 17.1288C128.086 13.7696 132.542 11.1987 137.922 11.3865C143.301 11.5744 147.567 14.4498 147.45 17.809Z" fill="#fff"/></g></g><defs><linearGradient gradientUnits="userSpaceOnUse" id="paint0_linear" x1="931.359" x2="927.164" y1="272.049" y2="-66.255"><stop stop-color="#3023AE"/><stop offset="1" stop-color="#9D3BAD"/></linearGradient><linearGradient gradientUnits="userSpaceOnUse" id="paint1_linear" x1="978.658" x2="972.675" y1="336.362" y2="-29.323"><stop stop-color="#3023AE"/><stop offset="1" stop-color="#C86DD7"/></linearGradient><linearGradient gradientUnits="userSpaceOnUse" id="paint2_linear" x1="-581.396" x2="-575.243" y1="-248.104" y2="324.421"><stop stop-color="#3023AE"/><stop offset="1" stop-color="#C86DD7"/></linearGradient><filter color-interpolation-filters="sRGB" filterUnits="userSpaceOnUse" height="234" id="filter0_i" width="672" x="0" y="0"><feFlood flood-opacity="0" result="BackgroundImageFix"/><feBlend in="SourceGraphic" in2="BackgroundImageFix" result="shape"/><feColorMatrix in="SourceAlpha" result="hardAlpha" values="0 0 0 0 0 0 0 0 0 0 0 0 0 0 0 0 0 0 127 0"/><feOffset dy="1"/><feGaussianBlur stdDeviation="1"/><feComposite in2="hardAlpha" k2="-1" k3="1" operator="arithmetic"/><feColorMatrix values="0 0 0 0 1 0 0 0 0 1 0 0 0 0 1 0 0 0 0.5 0"/><feBlend in2="shape" result="effect1_innerShadow"/></filter><filter color-interpolation-filters="sRGB" filterUnits="userSpaceOnUse" height="40.71" id="filter1_f" width="51.95" x="72.779" y="2.103"><feFlood flood-opacity="0" result="BackgroundImageFix"/><feBlend in="SourceGraphic" in2="BackgroundImageFix" result="shape"/><feGaussianBlur result="effect1_foregroundBlur" stdDeviation="1.359"/></filter><filter color-interpolation-filters="sRGB" filterUnits="userSpaceOnUse" height="29.155" id="filter2_f" width="36.215" x="119.602" y="2.892"><feFlood flood-opacity="0" result="BackgroundImageFix"/><feBlend in="SourceGraphic" in2="BackgroundImageFix" result="shape"/><feGaussianBlur result="effect1_foregroundBlur" stdDeviation="1.359"/></filter></defs></svg>